<?xml version="1.0" encoding="UTF-8"?>
<svg id="Layer_1" xmlns="http://www.w3.org/2000/svg" version="1.1" viewBox="0 0 37.56 37.56">
  <!-- Generator: Adobe Illustrator 29.8.1, SVG Export Plug-In . SVG Version: 2.1.1 Build 2)  -->
  <defs>
    <style>
      .st0 {
        fill: #1f233e;
      }

      .st1 {
        fill: none;
        stroke: #fff;
        stroke-miterlimit: 10;
        stroke-width: .5px;
      }
    </style>
  </defs>
  <circle class="st0" cx="18.78" cy="18.78" r="16.85"/>
  <g>
    <g>
      <ellipse class="st1" cx="18.78" cy="18.78" rx="7.5" ry="12.24" transform="translate(-7.78 18.78) rotate(-45)"/>
      <path class="st1" d="M27.63,27.63c-3.04,3.04-9.49,1.55-14.37-3.33s-6.38-11.33-3.33-14.37,9.49-1.55,14.37,3.33c4.88,4.88,6.38,11.33,3.33,14.37ZM10.33,10.33c-2.8,2.8-1.3,8.88,3.36,13.54s10.73,6.17,13.54,3.36c2.8-2.8,1.3-8.88-3.36-13.54s-10.73-6.17-13.54-3.36Z"/>
    </g>
    <g>
      <ellipse class="st1" cx="18.78" cy="18.78" rx="3.75" ry="12.24" transform="translate(-7.78 18.78) rotate(-45)"/>
      <path class="st1" d="M27.63,27.63c-1.8,1.8-7.37-1.63-11.72-5.99s-7.78-9.93-5.99-11.72,7.37,1.63,11.72,5.99,7.78,9.93,5.99,11.72ZM10.33,10.33c-1.15,1.15,1.04,5.9,6.01,10.88s9.73,7.17,10.88,6.01-1.03-5.9-6.01-10.88-9.73-7.17-10.88-6.01Z"/>
    </g>
    <g>
      <line class="st1" x1="27.43" y1="27.43" x2="10.13" y2="10.13"/>
      <rect class="st1" x="18.47" y="6.54" width=".61" height="24.47" transform="translate(-7.78 18.78) rotate(-45)"/>
    </g>
  </g>
</svg>