<?xml version="1.0" encoding="UTF-8"?>
<svg id="Layer_1" xmlns="http://www.w3.org/2000/svg" version="1.1" viewBox="0 0 37.56 37.56">
  <!-- Generator: Adobe Illustrator 29.8.1, SVG Export Plug-In . SVG Version: 2.1.1 Build 2)  -->
  <defs>
    <style>
      .st0 {
        fill: #fff;
      }

      .st1 {
        fill: #1f233e;
      }
    </style>
  </defs>
  <circle class="st1" cx="18.78" cy="18.78" r="16.85"/>
  <path class="st0" d="M18.78,30.37c-.15,0-.29-.06-.4-.17l-8.72-8.72c-1.27-1.27-1.97-2.97-1.97-4.77s.7-3.49,1.97-4.77c1.27-1.27,2.97-1.97,4.77-1.97,1.62,0,3.14.57,4.36,1.6,2.65-2.25,6.63-2.12,9.13.37,2.63,2.63,2.63,6.9,0,9.53l-8.72,8.72c-.11.11-.26.17-.4.17ZM14.8,11.89c-1.31,0-2.62.5-3.61,1.49-.97.97-1.5,2.25-1.5,3.61s.53,2.65,1.5,3.61l7.6,7.6,7.6-7.6c1.99-1.99,1.99-5.24,0-7.23s-5.24-1.99-7.23,0c-.2.2-.53.2-.74,0-1-1-2.31-1.49-3.61-1.49Z"/>
</svg>