<?xml version="1.0" encoding="UTF-8"?>
<svg id="Layer_1" xmlns="http://www.w3.org/2000/svg" version="1.1" viewBox="0 0 37.56 37.56">
  <!-- Generator: Adobe Illustrator 29.8.1, SVG Export Plug-In . SVG Version: 2.1.1 Build 2)  -->
  <defs>
    <style>
      .st0 {
        fill: #fff;
      }

      .st1 {
        fill: #1f233e;
      }
    </style>
  </defs>
  <circle class="st1" cx="18.78" cy="18.78" r="16.85"/>
  <path class="st0" d="M19.32,28.83c-2.71,0-5.43-1.03-7.49-3.1s-3.11-4.66-3.11-7.49,1.1-5.49,3.11-7.49c.77-.77,1.65-1.41,2.62-1.92.34-.17.74-.11,1,.16.26.26.33.67.15,1-1.79,3.45-1.14,7.62,1.61,10.37,2.75,2.75,6.92,3.4,10.37,1.6.34-.17.74-.11,1,.16s.33.67.15,1c-.5.97-1.15,1.85-1.91,2.62-2.07,2.07-4.78,3.1-7.49,3.1ZM13.11,11.88s-.05.05-.07.07c-1.68,1.68-2.6,3.91-2.6,6.28s.92,4.6,2.6,6.28c3.46,3.46,9.1,3.46,12.56,0,.02-.02.05-.05.07-.07-3.45.73-7.09-.3-9.68-2.88-2.59-2.59-3.61-6.23-2.88-9.68Z"/>
</svg>