<?xml version="1.0" encoding="UTF-8"?>
<svg id="Layer_1" xmlns="http://www.w3.org/2000/svg" version="1.1" viewBox="0 0 37.56 37.56">
  <!-- Generator: Adobe Illustrator 29.8.1, SVG Export Plug-In . SVG Version: 2.1.1 Build 2)  -->
  <defs>
    <style>
      .st0 {
        fill: #fff;
      }

      .st1 {
        fill: #1f233e;
      }
    </style>
  </defs>
  <circle class="st1" cx="18.78" cy="18.78" r="16.85"/>
  <g>
    <path class="st0" d="M27.56,18.69s-.06-.06-.1-.08l-6.17-2.29-2.29-6.17s-.04-.09-.08-.11c-.08-.06-.19-.06-.27,0-.03.02-.07.06-.08.11l-2.29,6.17-6.17,2.29s-.08.04-.11.08c-.06.08-.06.19,0,.27.03.03.07.07.11.08l6.17,2.29,2.29,6.17s.05.08.08.11c.08.05.19.05.27,0,.04-.03.07-.06.08-.11l2.15-5.8.13-.36,1.48-.55,4.69-1.73s.08-.04.1-.08c.07-.08.07-.2,0-.28ZM21.95,20.32l-.87.32c-.23.08-.4.25-.48.48l-.1.26-1.72,4.64-1.81-4.89c-.08-.23-.26-.4-.48-.48l-4.89-1.81,4.89-1.81c.22-.08.4-.26.48-.48l1.77-5.01,1.85,5.01c.08.22.26.4.48.48l4.89,1.81-4.02,1.49Z"/>
    <path class="st0" d="M9.74,18.97c.05.58.42,1.07.98,1.28l4.85,1.8,1.8,4.85c.2.56.7.93,1.28.98.05.01.09.01.14.01s.1,0,.14-.01c.58-.05,1.07-.42,1.28-.98l1.75-4.71.05-.14,1.83-.67,3.02-1.12c.55-.2.92-.69.97-1.27.01-.05.01-.09.01-.14s0-.1-.01-.15c-.05-.58-.42-1.07-.97-1.27l-4.85-1.8-1.8-4.85c-.2-.55-.7-.93-1.28-.98-.05-.01-.1-.01-.14-.01s-.09,0-.14.01c-.58.05-1.07.43-1.28.98l-1.8,4.85-4.85,1.8c-.56.2-.93.7-.98,1.28M18.78,26.02l-1.81-4.89c-.08-.23-.26-.4-.48-.48l-4.89-1.81,4.89-1.81c.22-.08.4-.26.48-.48l1.77-5.01,1.85,5.01c.08.22.26.4.48.48l4.89,1.81-4.02,1.49-.87.32c-.23.08-.4.25-.48.48l-.1.26-1.72,4.64Z"/>
  </g>
</svg>